<?xml version="1.0" standalone="no"?>
<!DOCTYPE svg PUBLIC "-//W3C//DTD SVG 20010904//EN"
 "http://www.w3.org/TR/2001/REC-SVG-20010904/DTD/svg10.dtd">
<svg version="1.0" xmlns="http://www.w3.org/2000/svg"
 width="609.000000pt" height="113.000000pt" viewBox="0 0 609.000000 113.000000"
 preserveAspectRatio="xMidYMid meet">

<g transform="translate(0.000000,113.000000) scale(0.100000,-0.100000)"
fill="#000000" stroke="none">
<path d="M2930 565 l0 -455 208 2 207 3 -202 2 -203 3 0 446 0 446 213 -4 212
-3 54 -30 c56 -31 92 -70 111 -119 6 -16 13 -26 16 -23 11 11 -45 95 -83 125
-69 54 -112 62 -333 62 l-200 0 0 -455z"/>
<path d="M3730 1013 c0 -5 139 -7 310 -5 l310 3 0 -81 0 -80 -305 0 -304 0 -4
68 -3 67 -2 -72 -2 -73 315 0 315 0 0 90 0 90 -315 0 c-173 0 -315 -3 -315 -7z"/>
<path d="M4546 998 c-8 -30 -8 -122 0 -142 5 -14 43 -16 320 -16 173 0 314 3
314 8 0 4 -139 6 -310 4 l-310 -3 0 81 0 81 310 -3 c171 -2 310 0 310 5 0 4
-141 7 -314 7 l-314 0 -6 -22z"/>
<path d="M5366 1004 c-9 -24 -7 -867 3 -882 5 -9 31 -12 92 -10 l84 3 3 178 2
179 54 -4 c43 -2 52 0 44 10 -16 18 -94 16 -102 -4 -3 -9 -6 -92 -6 -185 l0
-169 -80 0 -80 0 0 446 0 446 213 -4 c193 -3 216 -6 252 -25 22 -11 49 -29 61
-40 32 -28 74 -95 74 -118 0 -11 5 -27 11 -35 21 -30 -3 54 -27 97 -30 52 -85
96 -147 117 -70 23 -442 24 -451 0z"/>
<path d="M1633 930 c0 -47 2 -66 4 -42 2 23 2 61 0 85 -2 23 -4 4 -4 -43z"/>
<path d="M1815 565 c0 -247 1 -347 2 -222 2 126 2 328 0 450 -1 122 -2 20 -2
-228z"/>
<path d="M993 930 c0 -41 2 -58 4 -37 2 20 2 54 0 75 -2 20 -4 3 -4 -38z"/>
<path d="M3112 842 c-20 -13 -12 -184 8 -189 12 -4 12 -2 2 5 -9 6 -12 33 -10
93 l3 84 95 6 95 5 -90 2 c-49 1 -96 -2 -103 -6z"/>
<path d="M5547 843 c-4 -3 -7 -11 -7 -17 0 -7 3 -6 8 1 5 8 43 13 102 16 l95
3 -96 2 c-53 1 -99 -1 -102 -5z"/>
<path d="M3552 745 c0 -58 1 -64 8 -35 5 19 5 51 0 70 -7 29 -8 23 -8 -35z"/>
<path d="M3383 745 c0 -22 2 -30 4 -17 2 12 2 30 0 40 -3 9 -5 -1 -4 -23z"/>
<path d="M5823 745 c0 -22 2 -30 4 -17 2 12 2 30 0 40 -3 9 -5 -1 -4 -23z"/>
<path d="M5981 675 c-6 -22 -20 -55 -31 -72 -11 -18 -16 -33 -11 -33 12 0 63
118 58 133 -2 7 -9 -6 -16 -28z"/>
<path d="M3354 678 l-19 -23 23 19 c12 11 22 21 22 23 0 8 -8 2 -26 -19z"/>
<path d="M5770 660 c-9 -6 -10 -10 -3 -10 6 0 15 5 18 10 8 12 4 12 -15 0z"/>
<path d="M3308 653 c7 -3 16 -2 19 1 4 3 -2 6 -13 5 -11 0 -14 -3 -6 -6z"/>
<path d="M3521 618 c-20 -40 -20 -41 -2 -18 18 22 34 60 26 60 -2 0 -13 -19
-24 -42z"/>
<path d="M3735 649 c-4 -5 -4 -13 -1 -16 3 -4 6 -1 6 5 0 9 79 12 305 12 l305
0 0 -80 0 -81 -310 3 c-203 2 -309 0 -307 -7 2 -6 116 -10 313 -10 l309 0 0
90 0 90 -307 3 c-212 1 -309 -1 -313 -9z"/>
<path d="M4550 641 c-5 -11 -10 -45 -10 -76 0 -102 -23 -95 325 -95 192 0 306
4 310 10 4 7 -100 10 -304 10 l-311 0 0 80 0 81 309 -3 c170 -2 307 0 304 5
-2 4 -141 7 -308 7 -291 0 -305 -1 -315 -19z"/>
<path d="M1634 565 c0 -49 1 -71 3 -48 2 23 2 64 0 90 -2 26 -3 8 -3 -42z"/>
<path d="M993 565 c0 -38 2 -53 4 -32 2 20 2 52 0 70 -2 17 -4 1 -4 -38z"/>
<path d="M3731 594 c0 -11 3 -14 6 -6 3 7 2 16 -1 19 -3 4 -6 -2 -5 -13z"/>
<path d="M5894 538 l-19 -23 23 19 c12 11 22 21 22 23 0 8 -8 2 -26 -19z"/>
<path d="M3510 530 c6 -11 13 -20 16 -20 2 0 0 9 -6 20 -6 11 -13 20 -16 20
-2 0 0 -9 6 -20z"/>
<path d="M5844 506 c-10 -8 -17 -16 -14 -19 3 -2 14 4 24 14 23 22 18 25 -10
5z"/>
<path d="M3530 491 c0 -6 4 -13 10 -16 6 -3 7 1 4 9 -7 18 -14 21 -14 7z"/>
<path d="M3112 478 c-13 -13 -17 -188 -4 -188 4 0 7 39 7 87 l0 88 103 3 c102
3 103 3 132 -27 46 -45 38 -105 -18 -135 -15 -9 -22 -15 -15 -16 58 -2 95 94
57 148 -8 12 -31 29 -51 37 -44 18 -194 20 -211 3z"/>
<path d="M5840 458 c0 -9 5 -20 10 -23 13 -8 13 5 0 25 -8 13 -10 13 -10 -2z"/>
<path d="M3552 385 c0 -59 1 -65 9 -38 5 18 5 47 0 70 -8 34 -9 31 -9 -32z"/>
<path d="M5660 443 c0 -4 5 -15 10 -23 8 -13 10 -13 10 2 0 9 -4 20 -10 23 -5
3 -10 3 -10 -2z"/>
<path d="M5860 411 c0 -6 4 -13 10 -16 6 -3 7 1 4 9 -7 18 -14 21 -14 7z"/>
<path d="M5690 375 c0 -5 5 -17 10 -25 5 -8 10 -10 10 -5 0 6 -5 17 -10 25 -5
8 -10 11 -10 5z"/>
<path d="M5886 361 c10 -39 35 -94 40 -89 2 3 -7 29 -21 59 -14 30 -22 43 -19
30z"/>
<path d="M5716 317 c3 -10 9 -15 12 -12 3 3 0 11 -7 18 -10 9 -11 8 -5 -6z"/>
<path d="M3527 268 c-14 -34 -66 -91 -103 -115 -10 -6 -14 -12 -8 -12 32 -2
149 137 130 156 -3 3 -11 -10 -19 -29z"/>
<path d="M3730 212 c-3 -56 -1 -87 6 -93 7 -5 139 -8 315 -7 l304 3 1 90 0 90
-3 -88 -4 -87 -304 0 -304 0 -3 88 -3 87 -5 -83z"/>
<path d="M4548 277 c-9 -22 -10 -129 -2 -151 5 -14 42 -16 323 -14 l316 3
-312 2 -312 3 -3 88 c-2 51 -6 79 -10 69z"/>
<path d="M5730 286 c0 -2 11 -28 25 -57 26 -55 24 -34 -1 28 -12 28 -24 43
-24 29z"/>
<path d="M1633 200 c0 -47 2 -66 4 -42 2 23 2 61 0 85 -2 23 -4 4 -4 -43z"/>
<path d="M993 200 c0 -41 2 -58 4 -37 2 20 2 54 0 75 -2 20 -4 3 -4 -38z"/>
<path d="M5930 251 c0 -6 4 -13 10 -16 6 -3 7 1 4 9 -7 18 -14 21 -14 7z"/>
<path d="M5964 176 c9 -21 16 -43 16 -48 0 -5 -37 -8 -89 -6 -49 2 -87 0 -84
-4 5 -9 177 -11 185 -2 4 3 -2 23 -11 45 -24 52 -38 65 -17 15z"/>
<path d="M5780 161 c0 -5 5 -13 10 -16 6 -3 10 -2 10 4 0 5 -4 13 -10 16 -5 3
-10 2 -10 -4z"/>
<path d="M3370 130 c-8 -5 -10 -10 -5 -10 6 0 17 5 25 10 8 5 11 10 5 10 -5 0
-17 -5 -25 -10z"/>
</g>
</svg>
